<svg width="57" height="57" viewBox="0 0 57 57" fill="none" xmlns="http://www.w3.org/2000/svg">
<rect width="56.7972" height="57" rx="11" fill="#111111"/>
<path d="M25.9726 31.552C26.4846 31.104 27.05 30.6133 27.6686 30.08C28.3086 29.5467 28.906 28.992 29.4606 28.416C30.0366 27.8187 30.506 27.1787 30.8686 26.496C31.2526 25.8133 31.4446 25.0773 31.4446 24.288C31.4446 23.136 31.1033 22.208 30.4206 21.504C29.738 20.8 28.7566 20.448 27.4766 20.448C26.4526 20.448 25.5886 20.6827 24.8846 21.152C24.1806 21.6213 23.7433 22.2507 23.5726 23.04H19.9246C20.01 22.0587 20.2766 21.184 20.7246 20.416C21.194 19.648 21.7806 19.0187 22.4846 18.528C23.1886 18.0373 23.9566 17.6853 24.7886 17.472C25.642 17.2373 26.6126 17.12 27.7006 17.12C28.7246 17.12 29.6846 17.2587 30.5806 17.536C31.4766 17.8133 32.2553 18.2293 32.9166 18.784C33.5993 19.3387 34.1326 20.0427 34.5166 20.896C34.922 21.728 35.1246 22.7093 35.1246 23.84C35.1246 24.736 35.0073 25.5573 34.7726 26.304C34.538 27.0507 34.218 27.744 33.8126 28.384C33.4073 29.024 32.938 29.6213 32.4046 30.176C31.8926 30.7307 31.3486 31.2533 30.7726 31.744C30.0046 32.4053 29.322 32.9813 28.7246 33.472C28.1486 33.9413 27.626 34.368 27.1566 34.752C26.6873 35.136 26.2606 35.488 25.8766 35.808C25.4926 36.1067 25.13 36.4053 24.7886 36.704H35.1246V40H19.7326V36.96L25.9726 31.552Z" fill="#BDFF00"/>
</svg>
