<svg width="151" height="46" viewBox="0 0 151 46" fill="none" xmlns="http://www.w3.org/2000/svg">
<path d="M34.8468 46V33.9641L22.667 26.9856L12.249 32.9843L34.8468 46Z" fill="white"/>
<path d="M22.6597 26.9897L34.8395 19.9765L22.6597 12.9943V26.9897Z" fill="white"/>
<path d="M12.2415 7.01757L0 2.28882e-05V40.0327L12.2415 32.9839V7.01757Z" fill="white"/>
<path d="M47.0582 20.1392V18.1903H47.5803C47.862 18.1903 48.0874 18.1622 48.2564 18.1058C48.4287 18.0462 48.563 17.9517 48.6591 17.8224C48.7585 17.6932 48.8414 17.5208 48.9077 17.3054L49.022 16.9922L45.2635 9.81818H47.7891L50.0511 14.392L51.8707 9.81818H54.3565L50.8565 17.8871C50.6742 18.2848 50.4588 18.656 50.2102 19.0007C49.9616 19.3421 49.6484 19.6172 49.2706 19.826C48.8961 20.0348 48.4238 20.1392 47.8537 20.1392H47.0582ZM55.3956 20V9.81818H57.8565V13.9048H61.8686V9.81818H64.3246V20H61.8686V15.9084H57.8565V20H55.3956ZM65.8683 9.81818H68.3242V15.6847H68.4087L72.4158 9.81818H74.5337V20H72.0728V14.1236H72.0082L67.9513 20H65.8683V9.81818ZM76.0811 20V9.81818H80.3269C81.0892 9.81818 81.7272 9.9259 82.2409 10.1413C82.758 10.3568 83.1458 10.6584 83.4043 11.0462C83.6661 11.4339 83.7971 11.883 83.7971 12.3935C83.7971 12.7812 83.7159 13.1276 83.5534 13.4325C83.391 13.7341 83.1673 13.9844 82.8823 14.1832C82.5972 14.3821 82.2675 14.5213 81.8929 14.6009V14.7003C82.3039 14.7202 82.6834 14.8312 83.0314 15.0334C83.3828 15.2356 83.6645 15.5173 83.8766 15.8786C84.0887 16.2365 84.1948 16.6607 84.1948 17.1513C84.1948 17.6982 84.0556 18.187 83.7772 18.6179C83.4988 19.0455 83.0961 19.3835 82.5691 19.6321C82.0421 19.8774 81.4024 20 80.65 20H76.0811ZM78.5421 18.0163H80.0634C80.597 18.0163 80.9898 17.9152 81.2417 17.7131C81.4969 17.5109 81.6245 17.2292 81.6245 16.8679C81.6245 16.6061 81.5632 16.3807 81.4405 16.1918C81.3179 15.9995 81.1439 15.852 80.9185 15.7493C80.6931 15.6432 80.423 15.5902 80.1081 15.5902H78.5421V18.0163ZM78.5421 14.0043H79.9043C80.1728 14.0043 80.4114 13.9595 80.6202 13.87C80.829 13.7805 80.9914 13.6513 81.1074 13.4822C81.2267 13.3132 81.2864 13.1094 81.2864 12.8707C81.2864 12.5294 81.1654 12.2609 80.9235 12.0653C80.6815 11.8698 80.3551 11.772 79.9441 11.772H78.5421V14.0043ZM85.378 20V9.81818H92.4775V11.8168H87.839V13.9048H92.1145V15.9084H87.839V18.0014H92.4775V20H85.378ZM94.0186 20V9.81818H98.2246C98.9869 9.81818 99.6448 9.96733 100.198 10.2656C100.755 10.5606 101.184 10.9732 101.486 11.5036C101.788 12.0305 101.938 12.6437 101.938 13.343C101.938 14.0457 101.784 14.6605 101.476 15.1875C101.171 15.7112 100.735 16.1172 100.169 16.4055C99.6017 16.6939 98.9289 16.8381 98.15 16.8381H95.5549V14.8991H97.6926C98.0639 14.8991 98.3738 14.8345 98.6223 14.7053C98.8742 14.576 99.0648 14.3954 99.1941 14.1634C99.3233 13.928 99.388 13.6546 99.388 13.343C99.388 13.0282 99.3233 12.7564 99.1941 12.5277C99.0648 12.2957 98.8742 12.1167 98.6223 11.9908C98.3704 11.8648 98.0605 11.8018 97.6926 11.8018H96.4796V20H94.0186ZM112.394 13.5071H109.908C109.875 13.2519 109.807 13.0215 109.704 12.8161C109.601 12.6106 109.465 12.4349 109.296 12.2891C109.127 12.1432 108.927 12.0322 108.695 11.956C108.466 11.8764 108.213 11.8366 107.934 11.8366C107.44 11.8366 107.014 11.9576 106.656 12.1996C106.302 12.4415 106.028 12.7912 105.836 13.2486C105.647 13.706 105.553 14.2595 105.553 14.9091C105.553 15.5852 105.649 16.152 105.841 16.6094C106.037 17.0634 106.31 17.4065 106.661 17.6385C107.016 17.8672 107.435 17.9815 107.919 17.9815C108.191 17.9815 108.438 17.9467 108.66 17.8771C108.885 17.8075 109.083 17.7064 109.252 17.5739C109.424 17.438 109.565 17.2739 109.674 17.0817C109.787 16.8861 109.865 16.6657 109.908 16.4205L112.394 16.4354C112.351 16.8861 112.22 17.3303 112.001 17.7678C111.785 18.2053 111.489 18.6046 111.111 18.9659C110.733 19.3239 110.272 19.6089 109.729 19.821C109.189 20.0331 108.569 20.1392 107.869 20.1392C106.948 20.1392 106.123 19.937 105.394 19.5327C104.668 19.125 104.094 18.5317 103.673 17.7528C103.253 16.974 103.042 16.026 103.042 14.9091C103.042 13.7888 103.256 12.8393 103.683 12.0604C104.111 11.2815 104.689 10.6899 105.419 10.2855C106.148 9.88115 106.965 9.67898 107.869 9.67898C108.486 9.67898 109.056 9.76515 109.58 9.9375C110.103 10.1065 110.564 10.3551 110.962 10.6832C111.36 11.008 111.683 11.4074 111.931 11.8814C112.18 12.3554 112.334 12.8973 112.394 13.5071ZM113.802 9.81818H116.258V15.6847H116.342L120.349 9.81818H122.467V20H120.006V14.1236H119.942L115.885 20H113.802V9.81818ZM123.682 11.8168V9.81818H132.287V11.8168H129.2V20H126.774V11.8168H123.682ZM133.489 20V9.81818H140.589V11.8168H135.95V13.9048H140.226V15.9084H135.95V18.0014H140.589V20H133.489ZM141.797 11.8168V9.81818H150.403V11.8168H147.315V20H144.889V11.8168H141.797ZM51.9901 40L48.7884 35.7741H48.2315V40H45.7706V29.8182H48.2315V33.7706H48.6243L51.7763 29.8182H54.8537L50.9311 34.6257L55.0575 40H51.9901ZM64.9647 34.9091C64.9647 36.0294 64.7492 36.9789 64.3184 37.7578C63.8875 38.5367 63.3042 39.1283 62.5684 39.5327C61.8359 39.937 61.0139 40.1392 60.1025 40.1392C59.1877 40.1392 58.3641 39.9354 57.6316 39.5277C56.8991 39.12 56.3174 38.5284 55.8865 37.7528C55.459 36.974 55.2452 36.026 55.2452 34.9091C55.2452 33.7888 55.459 32.8393 55.8865 32.0604C56.3174 31.2815 56.8991 30.6899 57.6316 30.2855C58.3641 29.8812 59.1877 29.679 60.1025 29.679C61.0139 29.679 61.8359 29.8812 62.5684 30.2855C63.3042 30.6899 63.8875 31.2815 64.3184 32.0604C64.7492 32.8393 64.9647 33.7888 64.9647 34.9091ZM62.449 34.9091C62.449 34.2462 62.3546 33.6861 62.1657 33.2287C61.9801 32.7713 61.7116 32.425 61.3603 32.1896C61.0123 31.9543 60.593 31.8366 60.1025 31.8366C59.6152 31.8366 59.196 31.9543 58.8446 32.1896C58.4933 32.425 58.2232 32.7713 58.0343 33.2287C57.8487 33.6861 57.7559 34.2462 57.7559 34.9091C57.7559 35.572 57.8487 36.1321 58.0343 36.5895C58.2232 37.0469 58.4933 37.3932 58.8446 37.6286C59.196 37.8639 59.6152 37.9815 60.1025 37.9815C60.593 37.9815 61.0123 37.8639 61.3603 37.6286C61.7116 37.3932 61.9801 37.0469 62.1657 36.5895C62.3546 36.1321 62.449 35.572 62.449 34.9091ZM75.6436 33.5071H73.1578C73.1247 33.2519 73.0568 33.0215 72.954 32.8161C72.8513 32.6106 72.7154 32.4349 72.5463 32.2891C72.3773 32.1432 72.1768 32.0322 71.9448 31.956C71.7161 31.8764 71.4625 31.8366 71.1841 31.8366C70.6903 31.8366 70.2644 31.9576 69.9064 32.1996C69.5518 32.4415 69.2783 32.7912 69.0861 33.2486C68.8972 33.706 68.8027 34.2595 68.8027 34.9091C68.8027 35.5852 68.8989 36.152 69.0911 36.6094C69.2866 37.0634 69.5601 37.4065 69.9114 37.6385C70.266 37.8672 70.6853 37.9815 71.1692 37.9815C71.441 37.9815 71.6879 37.9467 71.91 37.8771C72.1354 37.8075 72.3326 37.7064 72.5016 37.5739C72.6739 37.438 72.8148 37.2739 72.9242 37.0817C73.0369 36.8861 73.1148 36.6657 73.1578 36.4205L75.6436 36.4354C75.6006 36.8861 75.4696 37.3303 75.2509 37.7678C75.0355 38.2053 74.7388 38.6046 74.361 38.9659C73.9831 39.3239 73.5224 39.6089 72.9789 39.821C72.4386 40.0331 71.8188 40.1392 71.1195 40.1392C70.1981 40.1392 69.3728 39.937 68.6436 39.5327C67.9178 39.125 67.3444 38.5317 66.9235 37.7528C66.5025 36.974 66.2921 36.026 66.2921 34.9091C66.2921 33.7888 66.5059 32.8393 66.9334 32.0604C67.361 31.2815 67.9393 30.6899 68.6685 30.2855C69.3977 29.8812 70.2147 29.679 71.1195 29.679C71.736 29.679 72.306 29.7652 72.8297 29.9375C73.3534 30.1065 73.8141 30.3551 74.2118 30.6832C74.6096 31.008 74.9327 31.4074 75.1813 31.8814C75.4299 32.3554 75.584 32.8973 75.6436 33.5071ZM78.6378 33.4077H80.9048C81.7367 33.4077 82.4593 33.5419 83.0724 33.8104C83.6856 34.0788 84.1596 34.4567 84.4943 34.9439C84.8324 35.4311 85.0014 36.0045 85.0014 36.6641C85.0014 37.3236 84.8324 37.9036 84.4943 38.4041C84.1596 38.9046 83.6856 39.2957 83.0724 39.5774C82.4593 39.8591 81.7367 40 80.9048 40H77.1016V29.8182H79.5575V38.0511H80.9048C81.2628 38.0511 81.5644 37.9898 81.8097 37.8672C82.0582 37.7412 82.2455 37.5722 82.3714 37.3601C82.5007 37.1446 82.5637 36.906 82.5604 36.6442C82.5637 36.2663 82.4228 35.9515 82.1378 35.6996C81.8527 35.4444 81.4418 35.3168 80.9048 35.3168H78.6378V33.4077ZM88.228 29.8182V40H85.772V29.8182H88.228ZM96.7219 29.8182V31.8168H92.2276V40H89.7667V29.8182H96.7219ZM97.9288 29.8182H100.385V35.6847H100.469L104.476 29.8182H106.594V40H104.133V34.1236H104.069L100.012 40H97.9288V29.8182ZM108.142 40V29.8182H110.603V33.9048H114.615V29.8182H117.071V40H114.615V35.9084H110.603V40H108.142ZM120.817 40H118.172L121.607 29.8182H124.884L128.319 40H125.674L123.283 32.3835H123.203L120.817 40ZM120.464 35.9929H125.992V37.8622H120.464V35.9929Z" fill="white"/>
</svg>
