<svg width="53" height="30" viewBox="0 0 53 30" fill="none" xmlns="http://www.w3.org/2000/svg">
<path fill-rule="evenodd" clip-rule="evenodd" d="M21.8681 0.0309861C19.8058 0.202405 18.8658 0.449483 18.1306 1.01373C17.2595 1.68209 17.1712 2.07018 17.8606 2.19924C19.8331 2.56867 20.4679 3.83251 20.6084 7.67115C20.8447 14.1287 19.4526 16.2642 16.8668 13.4104C15.6609 12.0796 12.909 7.09432 11.4519 3.6009C10.8634 2.18986 10.6785 1.93144 10.0134 1.59004L9.45147 1.30163L5.21038 1.33235C-0.804408 1.37595 -0.698942 1.2805 1.0164 5.12697C5.02551 14.1172 10.7394 22.7542 14.6687 25.7634C18.6813 28.8365 21.3692 29.8301 25.9576 29.9366C30.0891 30.0324 30.4468 29.8443 30.6023 27.4934C30.7693 24.9685 31.6191 23.0989 32.6219 23.0496C33.6595 22.9987 34.2579 23.444 36.3561 25.828C40.0474 30.0224 40.2205 30.0937 46.4155 29.9704C52.0379 29.8585 52.3469 29.7548 52.2252 28.0199C52.1301 26.6628 50.7823 24.8825 46.9425 21.0424C42.8352 16.9346 42.843 17.3211 46.7584 12.0832C52.0851 4.9573 53.2652 2.43353 51.6634 1.59303C51.1233 1.30967 49.9938 1.27596 44.6714 1.3843L40.6485 1.46614L40.3281 1.84011C40.1519 2.04575 39.807 2.71834 39.5617 3.33475C37.4683 8.59462 33.4642 14.6086 32.0557 14.6086C30.6768 14.6086 30.5077 13.7646 30.6001 7.3416C30.6948 0.752327 30.6643 0.659041 28.2728 0.216939C27.4713 0.0688152 22.9817 -0.0615781 21.8681 0.0309861Z" fill="white"/>
</svg>
