<svg width="37" height="30" viewBox="0 0 37 30" fill="none" xmlns="http://www.w3.org/2000/svg">
<path fill-rule="evenodd" clip-rule="evenodd" d="M33.8975 0.17897C31.5014 1.06041 1.97124 12.4052 1.53629 12.6114C0.0910021 13.2964 -0.0779637 14.2012 1.12521 14.8132C1.24138 14.8723 3.24024 15.5115 5.56711 16.2337L9.7978 17.5467L19.1548 11.6899C24.3011 8.46864 28.712 5.72731 28.9569 5.59805C29.5545 5.28258 30.0279 5.28321 30.0231 5.59946C30.0195 5.84186 30.9829 4.95978 18.3738 16.2665C16.2828 18.1416 14.5466 19.698 14.5154 19.7254C14.4709 19.7645 14.2165 23.065 13.8868 27.8816L13.8659 28.1881L14.1838 28.1452C14.7477 28.0691 15.0623 27.8208 17.2547 25.7217C18.4406 24.5861 19.4513 23.6415 19.5006 23.6227C19.5499 23.6037 21.4366 24.941 23.6933 26.5942C25.9499 28.2475 27.9731 29.6819 28.1892 29.7818C29.3347 30.3111 30.3333 29.857 30.6952 28.6422C31.1334 27.1715 36.3215 2.46233 36.3222 1.843C36.3239 0.324351 35.3392 -0.351371 33.8975 0.17897Z" fill="white"/>
</svg>
