<svg width="27" height="30" viewBox="0 0 27 30" fill="none" xmlns="http://www.w3.org/2000/svg">
<path fill-rule="evenodd" clip-rule="evenodd" d="M13.8567 10.6627C13.8198 22.7302 13.8634 21.7024 13.3446 22.7333C11.7181 25.9649 7.00223 25.93 5.42497 22.6747C3.84133 19.4062 6.72209 15.6433 10.2352 16.3915C10.4772 16.4431 10.7082 16.4853 10.7485 16.4853C10.806 16.4853 10.8218 15.9542 10.8218 14.0249V11.5645L10.5432 11.5169C10.0407 11.4311 8.43363 11.4699 7.8005 11.5831C0.197892 12.9426 -2.64551 22.1005 2.88846 27.4034C7.94629 32.25 16.471 29.9907 18.4088 23.2902C18.7742 22.0272 18.7668 22.1904 18.7475 15.7373C18.736 11.924 18.75 9.856 18.7873 9.856C18.8189 9.856 18.8765 9.89425 18.9154 9.94101C19.1801 10.2599 21.0169 11.2587 22.0351 11.6374C23.2073 12.0732 24.7659 12.3778 25.8265 12.3784L26.3698 12.3787L26.3545 9.95867L26.3392 7.53867L25.772 7.50165C22.0742 7.26023 19.0649 4.25826 18.7666 0.513333L18.7257 0H16.3075H13.8893L13.8567 10.6627Z" fill="white"/>
</svg>
