<svg width="1015" height="460" viewBox="0 0 1015 460" fill="none" xmlns="http://www.w3.org/2000/svg">
<rect x="361" width="293" height="90" rx="20" fill="black"/>
<path d="M416.685 55H413.901V34.904H401.677V55H398.893V32.376H416.685V55ZM423.74 47.576C423.804 48.3227 423.954 49.016 424.188 49.656C424.444 50.2747 424.786 50.8187 425.212 51.288C425.639 51.7573 426.162 52.1307 426.78 52.408C427.42 52.664 428.156 52.792 428.988 52.792C429.394 52.792 429.81 52.76 430.236 52.696C430.684 52.6107 431.1 52.4827 431.484 52.312C431.868 52.12 432.21 51.8747 432.508 51.576C432.807 51.2773 433.031 50.9147 433.18 50.488H435.964C435.772 51.2987 435.442 52.0027 434.972 52.6C434.524 53.1973 433.98 53.688 433.34 54.072C432.722 54.456 432.028 54.744 431.26 54.936C430.492 55.1067 429.714 55.192 428.924 55.192C427.58 55.192 426.407 54.9787 425.404 54.552C424.423 54.1253 423.602 53.5387 422.94 52.792C422.279 52.024 421.788 51.1173 421.468 50.072C421.148 49.0053 420.988 47.8427 420.988 46.584C420.988 45.3253 421.159 44.1733 421.5 43.128C421.863 42.0613 422.375 41.144 423.036 40.376C423.698 39.608 424.508 39.0107 425.468 38.584C426.428 38.1573 427.57 37.944 428.892 37.944C430.236 37.944 431.399 38.2107 432.38 38.744C433.362 39.2773 434.151 39.9813 434.748 40.856C435.346 41.7093 435.762 42.6373 435.996 43.64C436.252 44.6427 436.359 45.5707 436.316 46.424C436.316 46.616 436.306 46.808 436.284 47C436.284 47.192 436.274 47.384 436.252 47.576H423.74ZM433.564 45.208C433.522 43.7787 433.074 42.616 432.22 41.72C431.367 40.824 430.226 40.376 428.796 40.376C428.007 40.376 427.314 40.504 426.716 40.76C426.119 41.016 425.618 41.368 425.212 41.816C424.807 42.264 424.487 42.7867 424.252 43.384C424.018 43.96 423.868 44.568 423.804 45.208H433.564ZM442.692 61.08H439.972V38.136H442.564L442.692 40.728C443.268 39.8107 444.047 39.128 445.028 38.68C446.031 38.2107 447.108 37.9653 448.26 37.944C449.561 37.944 450.66 38.168 451.556 38.616C452.473 39.0427 453.231 39.6507 453.828 40.44C454.447 41.208 454.905 42.1253 455.204 43.192C455.503 44.2373 455.652 45.368 455.652 46.584C455.652 47.8213 455.503 48.9627 455.204 50.008C454.905 51.0533 454.447 51.96 453.828 52.728C453.209 53.496 452.431 54.104 451.492 54.552C450.553 54.9787 449.433 55.192 448.132 55.192C446.852 55.192 445.764 54.9893 444.868 54.584C443.972 54.1787 443.247 53.6453 442.692 52.984V61.08ZM447.908 52.792C448.825 52.792 449.593 52.632 450.212 52.312C450.852 51.9707 451.364 51.5227 451.748 50.968C452.153 50.392 452.441 49.7307 452.612 48.984C452.804 48.2373 452.911 47.4373 452.932 46.584C452.932 45.7307 452.836 44.9307 452.644 44.184C452.473 43.416 452.185 42.7547 451.78 42.2C451.375 41.6453 450.841 41.208 450.18 40.888C449.54 40.5467 448.761 40.376 447.844 40.376C446.756 40.376 445.817 40.6747 445.028 41.272C444.239 41.848 443.641 42.584 443.236 43.48C443.001 43.9707 442.841 44.4827 442.756 45.016C442.671 45.528 442.628 46.0613 442.628 46.616C442.628 47.256 442.671 47.8533 442.756 48.408C442.841 48.9413 443.001 49.4533 443.236 49.944C443.641 50.7547 444.228 51.4373 444.996 51.992C445.785 52.5253 446.756 52.792 447.908 52.792ZM459.16 38.136H465.688C466.776 38.136 467.704 38.2107 468.472 38.36C469.261 38.5093 469.922 38.776 470.456 39.16C470.925 39.48 471.288 39.9067 471.544 40.44C471.821 40.9733 471.96 41.6027 471.96 42.328C471.96 44.0133 471.202 45.2187 469.688 45.944C470.84 46.2 471.672 46.7013 472.184 47.448C472.696 48.1947 472.952 49.048 472.952 50.008C472.93 50.904 472.781 51.64 472.504 52.216C472.226 52.7707 471.832 53.2613 471.32 53.688C470.829 54.0933 470.221 54.4133 469.496 54.648C468.77 54.8827 467.949 55 467.032 55H459.16V38.136ZM461.944 40.536V45.336H464.28C464.813 45.336 465.357 45.3253 465.912 45.304C466.466 45.2613 466.957 45.1653 467.384 45.016C467.917 44.8453 468.365 44.568 468.728 44.184C469.09 43.8 469.282 43.3413 469.304 42.808C469.304 42.1893 469.165 41.7413 468.888 41.464C468.632 41.1653 468.312 40.952 467.928 40.824C467.544 40.6747 467.128 40.5893 466.68 40.568C466.232 40.5467 465.816 40.536 465.432 40.536H461.944ZM461.944 52.632H466.392C466.882 52.632 467.352 52.6 467.8 52.536C468.269 52.472 468.674 52.3547 469.016 52.184C469.357 51.992 469.634 51.736 469.848 51.416C470.061 51.096 470.178 50.6907 470.2 50.2C470.2 49.56 470.05 49.0587 469.752 48.696C469.453 48.312 469.048 48.0347 468.536 47.864C468.109 47.736 467.629 47.6613 467.096 47.64C466.562 47.6187 466.008 47.608 465.432 47.608L461.944 47.64V52.632ZM484.084 37.944C485.428 37.944 486.59 38.1573 487.572 38.584C488.553 39.0107 489.374 39.608 490.036 40.376C490.718 41.144 491.22 42.0613 491.54 43.128C491.881 44.1733 492.052 45.3253 492.052 46.584C492.052 47.8427 491.881 49.0053 491.54 50.072C491.22 51.1173 490.718 52.024 490.036 52.792C489.374 53.5387 488.542 54.1253 487.54 54.552C486.537 54.9787 485.364 55.192 484.02 55.192C482.676 55.192 481.502 54.9787 480.5 54.552C479.518 54.1253 478.686 53.5387 478.004 52.792C477.342 52.024 476.841 51.1173 476.5 50.072C476.18 49.0053 476.02 47.8427 476.02 46.584C476.02 45.3253 476.18 44.1733 476.5 43.128C476.841 42.0613 477.342 41.144 478.004 40.376C478.686 39.608 479.529 39.0107 480.532 38.584C481.534 38.1573 482.718 37.944 484.084 37.944ZM484.02 52.792C484.937 52.792 485.726 52.632 486.388 52.312C487.07 51.992 487.625 51.5547 488.052 51C488.5 50.424 488.82 49.7627 489.012 49.016C489.225 48.2693 489.332 47.4587 489.332 46.584C489.332 45.7307 489.225 44.9307 489.012 44.184C488.82 43.416 488.5 42.7547 488.052 42.2C487.625 41.624 487.07 41.176 486.388 40.856C485.726 40.536 484.937 40.376 484.02 40.376C483.102 40.376 482.313 40.536 481.652 40.856C480.99 41.176 480.436 41.624 479.988 42.2C479.561 42.7547 479.241 43.416 479.028 44.184C478.836 44.9307 478.74 45.7307 478.74 46.584C478.74 47.4587 478.836 48.2693 479.028 49.016C479.241 49.7627 479.561 50.424 479.988 51C480.436 51.5547 480.99 51.992 481.652 52.312C482.313 52.632 483.102 52.792 484.02 52.792ZM495.691 55V38.136H498.411V45.4H501.355L506.347 38.136H509.451L503.819 46.168L509.931 55H506.731L501.675 47.768H498.411V55H495.691ZM524.413 38.136H527.485L522.717 51.416C522.461 52.0987 522.183 52.8773 521.885 53.752C521.607 54.6053 521.287 55.4587 520.925 56.312C520.583 57.1867 520.189 58.008 519.741 58.776C519.314 59.544 518.834 60.1627 518.301 60.632C517.511 61.336 516.754 61.7733 516.029 61.944C515.303 62.136 514.482 62.232 513.565 62.232H512.989V59.64C513.757 59.64 514.407 59.5547 514.941 59.384C515.474 59.2347 515.933 58.9893 516.317 58.648C516.722 58.3067 517.063 57.88 517.341 57.368C517.639 56.856 517.938 56.248 518.237 55.544L510.685 38.136H513.885L519.741 52.344L524.413 38.136ZM532.723 61.08H530.003V38.136H532.595L532.723 40.728C533.299 39.8107 534.078 39.128 535.059 38.68C536.062 38.2107 537.139 37.9653 538.291 37.944C539.593 37.944 540.691 38.168 541.587 38.616C542.505 39.0427 543.262 39.6507 543.859 40.44C544.478 41.208 544.937 42.1253 545.235 43.192C545.534 44.2373 545.683 45.368 545.683 46.584C545.683 47.8213 545.534 48.9627 545.235 50.008C544.937 51.0533 544.478 51.96 543.859 52.728C543.241 53.496 542.462 54.104 541.523 54.552C540.585 54.9787 539.465 55.192 538.163 55.192C536.883 55.192 535.795 54.9893 534.899 54.584C534.003 54.1787 533.278 53.6453 532.723 52.984V61.08ZM537.939 52.792C538.857 52.792 539.625 52.632 540.243 52.312C540.883 51.9707 541.395 51.5227 541.779 50.968C542.185 50.392 542.473 49.7307 542.643 48.984C542.835 48.2373 542.942 47.4373 542.963 46.584C542.963 45.7307 542.867 44.9307 542.675 44.184C542.505 43.416 542.217 42.7547 541.811 42.2C541.406 41.6453 540.873 41.208 540.211 40.888C539.571 40.5467 538.793 40.376 537.875 40.376C536.787 40.376 535.849 40.6747 535.059 41.272C534.27 41.848 533.673 42.584 533.267 43.48C533.033 43.9707 532.873 44.4827 532.787 45.016C532.702 45.528 532.659 46.0613 532.659 46.616C532.659 47.256 532.702 47.8533 532.787 48.408C532.873 48.9413 533.033 49.4533 533.267 49.944C533.673 50.7547 534.259 51.4373 535.027 51.992C535.817 52.5253 536.787 52.792 537.939 52.792ZM556.703 55.192C555.359 55.192 554.197 54.9787 553.215 54.552C552.234 54.1253 551.423 53.528 550.783 52.76C550.143 51.992 549.663 51.0853 549.343 50.04C549.023 48.9947 548.863 47.8533 548.863 46.616C548.863 45.4213 549.034 44.3013 549.375 43.256C549.717 42.1893 550.218 41.272 550.879 40.504C551.541 39.7147 552.373 39.096 553.375 38.648C554.378 38.1787 555.594 37.944 557.023 37.944C557.877 37.944 558.634 38.04 559.295 38.232C559.957 38.4027 560.575 38.6907 561.151 39.096C561.749 39.48 562.261 39.992 562.687 40.632C563.114 41.272 563.423 42.0507 563.615 42.968H560.831C560.511 42.0293 559.999 41.3573 559.295 40.952C558.613 40.5467 557.802 40.3547 556.863 40.376C555.946 40.376 555.135 40.5573 554.431 40.92C553.749 41.2613 553.194 41.72 552.767 42.296C552.362 42.872 552.063 43.544 551.871 44.312C551.679 45.0587 551.583 45.8267 551.583 46.616C551.583 47.448 551.679 48.2373 551.871 48.984C552.085 49.7307 552.394 50.392 552.799 50.968C553.226 51.5227 553.77 51.9707 554.431 52.312C555.093 52.632 555.882 52.792 556.799 52.792C557.247 52.792 557.685 52.7493 558.111 52.664C558.559 52.5787 558.965 52.44 559.327 52.248C559.711 52.0347 560.042 51.7573 560.319 51.416C560.597 51.0747 560.799 50.6587 560.927 50.168H563.743C563.573 51.0427 563.263 51.8 562.815 52.44C562.389 53.0587 561.855 53.5813 561.215 54.008C560.575 54.4133 559.871 54.712 559.103 54.904C558.335 55.096 557.535 55.192 556.703 55.192ZM567.191 55V38.136H569.911V45.528H578.359V38.136H581.079V55H578.359V47.928H569.911V55H567.191ZM588.034 55H585.378V38.136H588.098V51.064C588.248 50.7653 588.45 50.4453 588.706 50.104C588.962 49.7413 589.165 49.464 589.314 49.272L597.474 38.136H600.162V55H597.442V42.072C597.272 42.392 597.08 42.7013 596.866 43C596.674 43.2773 596.493 43.5227 596.322 43.736L588.034 55ZM604.441 55V38.136H607.161V45.4H610.105L615.097 38.136H618.201L612.569 46.168L618.681 55H615.481L610.425 47.768H607.161V55H604.441Z" fill="#BDFF00"/>
<rect x="363" y="370" width="290" height="90" rx="20" fill="black"/>
<path d="M418.857 425H416.073V404.904H403.849V425H401.065V402.376H418.857V425ZM426.52 431.08H423.8V408.136H426.392L426.52 410.728C427.096 409.811 427.875 409.128 428.856 408.68C429.859 408.211 430.936 407.965 432.088 407.944C433.39 407.944 434.488 408.168 435.384 408.616C436.302 409.043 437.059 409.651 437.656 410.44C438.275 411.208 438.734 412.125 439.032 413.192C439.331 414.237 439.48 415.368 439.48 416.584C439.48 417.821 439.331 418.963 439.032 420.008C438.734 421.053 438.275 421.96 437.656 422.728C437.038 423.496 436.259 424.104 435.32 424.552C434.382 424.979 433.262 425.192 431.96 425.192C430.68 425.192 429.592 424.989 428.696 424.584C427.8 424.179 427.075 423.645 426.52 422.984V431.08ZM431.736 422.792C432.654 422.792 433.422 422.632 434.04 422.312C434.68 421.971 435.192 421.523 435.576 420.968C435.982 420.392 436.27 419.731 436.44 418.984C436.632 418.237 436.739 417.437 436.76 416.584C436.76 415.731 436.664 414.931 436.472 414.184C436.302 413.416 436.014 412.755 435.608 412.2C435.203 411.645 434.67 411.208 434.008 410.888C433.368 410.547 432.59 410.376 431.672 410.376C430.584 410.376 429.646 410.675 428.856 411.272C428.067 411.848 427.47 412.584 427.064 413.48C426.83 413.971 426.67 414.483 426.584 415.016C426.499 415.528 426.456 416.061 426.456 416.616C426.456 417.256 426.499 417.853 426.584 418.408C426.67 418.941 426.83 419.453 427.064 419.944C427.47 420.755 428.056 421.437 428.824 421.992C429.614 422.525 430.584 422.792 431.736 422.792ZM445.1 417.576C445.164 418.323 445.313 419.016 445.548 419.656C445.804 420.275 446.145 420.819 446.572 421.288C446.998 421.757 447.521 422.131 448.14 422.408C448.78 422.664 449.516 422.792 450.348 422.792C450.753 422.792 451.169 422.76 451.596 422.696C452.044 422.611 452.46 422.483 452.844 422.312C453.228 422.12 453.569 421.875 453.868 421.576C454.166 421.277 454.39 420.915 454.54 420.488H457.324C457.132 421.299 456.801 422.003 456.332 422.6C455.884 423.197 455.34 423.688 454.7 424.072C454.081 424.456 453.388 424.744 452.62 424.936C451.852 425.107 451.073 425.192 450.284 425.192C448.94 425.192 447.766 424.979 446.764 424.552C445.782 424.125 444.961 423.539 444.3 422.792C443.638 422.024 443.148 421.117 442.828 420.072C442.508 419.005 442.348 417.843 442.348 416.584C442.348 415.325 442.518 414.173 442.86 413.128C443.222 412.061 443.734 411.144 444.396 410.376C445.057 409.608 445.868 409.011 446.828 408.584C447.788 408.157 448.929 407.944 450.252 407.944C451.596 407.944 452.758 408.211 453.74 408.744C454.721 409.277 455.51 409.981 456.108 410.856C456.705 411.709 457.121 412.637 457.356 413.64C457.612 414.643 457.718 415.571 457.676 416.424C457.676 416.616 457.665 416.808 457.644 417C457.644 417.192 457.633 417.384 457.612 417.576H445.1ZM454.924 415.208C454.881 413.779 454.433 412.616 453.58 411.72C452.726 410.824 451.585 410.376 450.156 410.376C449.366 410.376 448.673 410.504 448.076 410.76C447.478 411.016 446.977 411.368 446.572 411.816C446.166 412.264 445.846 412.787 445.612 413.384C445.377 413.96 445.228 414.568 445.164 415.208H454.924ZM462.877 411.848C462.898 411.229 462.909 410.611 462.909 409.992C462.909 409.373 462.909 408.755 462.909 408.136H474.877V422.632H477.085V430.184H474.461V425H462.141V430.184H459.517V422.632C460.37 422.632 461.042 422.248 461.533 421.48C461.831 421.053 462.066 420.445 462.237 419.656C462.407 418.845 462.535 417.992 462.621 417.096C462.727 416.115 462.791 415.144 462.812 414.184C462.855 413.203 462.877 412.424 462.877 411.848ZM472.157 410.536H465.501C465.479 411.432 465.458 412.435 465.437 413.544C465.415 414.653 465.373 415.688 465.309 416.648C465.287 417.075 465.255 417.544 465.213 418.056C465.17 418.547 465.095 419.059 464.989 419.592C464.903 420.104 464.765 420.627 464.573 421.16C464.402 421.693 464.157 422.184 463.837 422.632H472.157V410.536ZM487.125 425.192C485.781 425.192 484.619 424.979 483.637 424.552C482.656 424.125 481.845 423.528 481.205 422.76C480.565 421.992 480.085 421.085 479.765 420.04C479.445 418.995 479.285 417.853 479.285 416.616C479.285 415.421 479.456 414.301 479.797 413.256C480.139 412.189 480.64 411.272 481.301 410.504C481.963 409.715 482.795 409.096 483.797 408.648C484.8 408.179 486.016 407.944 487.445 407.944C488.299 407.944 489.056 408.04 489.717 408.232C490.379 408.403 490.997 408.691 491.573 409.096C492.171 409.48 492.683 409.992 493.109 410.632C493.536 411.272 493.845 412.051 494.037 412.968H491.253C490.933 412.029 490.421 411.357 489.717 410.952C489.035 410.547 488.224 410.355 487.285 410.376C486.368 410.376 485.557 410.557 484.853 410.92C484.171 411.261 483.616 411.72 483.189 412.296C482.784 412.872 482.485 413.544 482.293 414.312C482.101 415.059 482.005 415.827 482.005 416.616C482.005 417.448 482.101 418.237 482.293 418.984C482.507 419.731 482.816 420.392 483.221 420.968C483.648 421.523 484.192 421.971 484.853 422.312C485.515 422.632 486.304 422.792 487.221 422.792C487.669 422.792 488.107 422.749 488.533 422.664C488.981 422.579 489.387 422.44 489.749 422.248C490.133 422.035 490.464 421.757 490.741 421.416C491.019 421.075 491.221 420.659 491.349 420.168H494.165C493.995 421.043 493.685 421.8 493.237 422.44C492.811 423.059 492.277 423.581 491.637 424.008C490.997 424.413 490.293 424.712 489.525 424.904C488.757 425.096 487.957 425.192 487.125 425.192ZM499.725 417.576C499.789 418.323 499.938 419.016 500.173 419.656C500.429 420.275 500.77 420.819 501.197 421.288C501.623 421.757 502.146 422.131 502.765 422.408C503.405 422.664 504.141 422.792 504.973 422.792C505.378 422.792 505.794 422.76 506.221 422.696C506.669 422.611 507.085 422.483 507.469 422.312C507.853 422.12 508.194 421.875 508.493 421.576C508.791 421.277 509.015 420.915 509.165 420.488H511.949C511.757 421.299 511.426 422.003 510.957 422.6C510.509 423.197 509.965 423.688 509.325 424.072C508.706 424.456 508.013 424.744 507.245 424.936C506.477 425.107 505.698 425.192 504.909 425.192C503.565 425.192 502.391 424.979 501.389 424.552C500.407 424.125 499.586 423.539 498.925 422.792C498.263 422.024 497.773 421.117 497.453 420.072C497.133 419.005 496.973 417.843 496.973 416.584C496.973 415.325 497.143 414.173 497.485 413.128C497.847 412.061 498.359 411.144 499.021 410.376C499.682 409.608 500.493 409.011 501.453 408.584C502.413 408.157 503.554 407.944 504.877 407.944C506.221 407.944 507.383 408.211 508.365 408.744C509.346 409.277 510.135 409.981 510.733 410.856C511.33 411.709 511.746 412.637 511.981 413.64C512.237 414.643 512.343 415.571 512.301 416.424C512.301 416.616 512.29 416.808 512.269 417C512.269 417.192 512.258 417.384 512.237 417.576H499.725ZM509.549 415.208C509.506 413.779 509.058 412.616 508.205 411.72C507.351 410.824 506.21 410.376 504.781 410.376C503.991 410.376 503.298 410.504 502.701 410.76C502.103 411.016 501.602 411.368 501.197 411.816C500.791 412.264 500.471 412.787 500.237 413.384C500.002 413.96 499.853 414.568 499.789 415.208H509.549ZM517.502 411.848C517.523 411.229 517.534 410.611 517.534 409.992C517.534 409.373 517.534 408.755 517.534 408.136H529.502V422.632H531.71V430.184H529.086V425H516.766V430.184H514.142V422.632C514.995 422.632 515.667 422.248 516.158 421.48C516.456 421.053 516.691 420.445 516.862 419.656C517.032 418.845 517.16 417.992 517.246 417.096C517.352 416.115 517.416 415.144 517.438 414.184C517.48 413.203 517.502 412.424 517.502 411.848ZM526.782 410.536H520.126C520.104 411.432 520.083 412.435 520.062 413.544C520.04 414.653 519.998 415.688 519.934 416.648C519.912 417.075 519.88 417.544 519.838 418.056C519.795 418.547 519.72 419.059 519.614 419.592C519.528 420.104 519.39 420.627 519.198 421.16C519.027 421.693 518.782 422.184 518.462 422.632H526.782V410.536ZM545.654 422.856C545.292 423.347 544.876 423.741 544.406 424.04C543.937 424.339 543.446 424.573 542.934 424.744C542.444 424.915 541.942 425.032 541.43 425.096C540.94 425.16 540.449 425.192 539.958 425.192C539.169 425.192 538.422 425.096 537.718 424.904C537.014 424.712 536.374 424.403 535.798 423.976C535.244 423.549 534.796 423.016 534.454 422.376C534.134 421.736 533.974 421.011 533.974 420.2C533.974 419.24 534.145 418.44 534.486 417.8C534.849 417.139 535.329 416.605 535.926 416.2C536.524 415.795 537.206 415.517 537.974 415.368C538.764 415.197 539.596 415.112 540.47 415.112H545.43C545.43 413.683 545.121 412.552 544.502 411.72C543.884 410.867 542.838 410.419 541.366 410.376C540.47 410.376 539.681 410.525 538.998 410.824C538.316 411.123 537.846 411.613 537.59 412.296H534.678C534.828 411.528 535.126 410.877 535.574 410.344C536.022 409.789 536.556 409.341 537.174 409C537.793 408.637 538.465 408.371 539.19 408.2C539.916 408.029 540.641 407.944 541.366 407.944C542.625 407.944 543.681 408.157 544.534 408.584C545.409 408.989 546.113 409.533 546.646 410.216C547.18 410.877 547.553 411.688 547.766 412.648C547.98 413.608 548.086 414.685 548.086 415.88V425H545.814L545.654 422.856ZM542.454 417.384C541.942 417.384 541.345 417.395 540.662 417.416C540.001 417.416 539.361 417.48 538.742 417.608C538.124 417.736 537.622 418.003 537.238 418.408C536.876 418.813 536.694 419.347 536.694 420.008C536.694 420.499 536.79 420.915 536.982 421.256C537.174 421.597 537.43 421.885 537.75 422.12C538.092 422.355 538.476 422.525 538.902 422.632C539.329 422.739 539.766 422.792 540.214 422.792C541.814 422.792 543.073 422.408 543.99 421.64C544.929 420.851 545.409 419.709 545.43 418.216V417.384H542.454ZM564.748 408.136V410.536H558.956V425H556.236V410.536H550.444V408.136H564.748ZM569.287 417.576C569.351 418.323 569.501 419.016 569.735 419.656C569.991 420.275 570.333 420.819 570.759 421.288C571.186 421.757 571.709 422.131 572.327 422.408C572.967 422.664 573.703 422.792 574.535 422.792C574.941 422.792 575.357 422.76 575.783 422.696C576.231 422.611 576.647 422.483 577.031 422.312C577.415 422.12 577.757 421.875 578.055 421.576C578.354 421.277 578.578 420.915 578.727 420.488H581.511C581.319 421.299 580.989 422.003 580.519 422.6C580.071 423.197 579.527 423.688 578.887 424.072C578.269 424.456 577.575 424.744 576.807 424.936C576.039 425.107 575.261 425.192 574.471 425.192C573.127 425.192 571.954 424.979 570.951 424.552C569.97 424.125 569.149 423.539 568.487 422.792C567.826 422.024 567.335 421.117 567.015 420.072C566.695 419.005 566.535 417.843 566.535 416.584C566.535 415.325 566.706 414.173 567.047 413.128C567.41 412.061 567.922 411.144 568.583 410.376C569.245 409.608 570.055 409.011 571.015 408.584C571.975 408.157 573.117 407.944 574.439 407.944C575.783 407.944 576.946 408.211 577.927 408.744C578.909 409.277 579.698 409.981 580.295 410.856C580.893 411.709 581.309 412.637 581.543 413.64C581.799 414.643 581.906 415.571 581.863 416.424C581.863 416.616 581.853 416.808 581.831 417C581.831 417.192 581.821 417.384 581.799 417.576H569.287ZM579.111 415.208C579.069 413.779 578.621 412.616 577.767 411.72C576.914 410.824 575.773 410.376 574.343 410.376C573.554 410.376 572.861 410.504 572.263 410.76C571.666 411.016 571.165 411.368 570.759 411.816C570.354 412.264 570.034 412.787 569.799 413.384C569.565 413.96 569.415 414.568 569.351 415.208H579.111ZM586.931 417.096C587.037 415.56 587.112 414.067 587.155 412.616C587.219 411.165 587.261 409.672 587.283 408.136H598.995V425H596.275V410.536H589.939L589.651 417.16C589.608 418.013 589.512 418.973 589.363 420.04C589.213 421.107 588.904 422.077 588.435 422.952C588.072 423.571 587.581 424.072 586.963 424.456C586.344 424.84 585.629 425.032 584.819 425.032H583.827V422.632C584.68 422.632 585.363 422.269 585.875 421.544C586.173 421.117 586.408 420.499 586.579 419.688C586.749 418.877 586.867 418.013 586.931 417.096ZM603.269 408.136H606.053V414.568H609.765C610.725 414.568 611.61 414.643 612.421 414.792C613.232 414.92 613.936 415.197 614.533 415.624C615.109 416.051 615.546 416.595 615.845 417.256C616.165 417.896 616.325 418.696 616.325 419.656C616.304 420.616 616.133 421.416 615.813 422.056C615.493 422.675 615.088 423.197 614.597 423.624C614.021 424.115 613.296 424.467 612.421 424.68C611.568 424.893 610.693 425 609.797 425H603.269V408.136ZM607.653 422.632C608.464 422.632 609.274 422.621 610.085 422.6C610.896 422.557 611.6 422.387 612.197 422.088C612.602 421.917 612.922 421.629 613.157 421.224C613.413 420.797 613.552 420.307 613.573 419.752C613.573 419.091 613.434 418.568 613.157 418.184C612.901 417.8 612.56 417.523 612.133 417.352C611.728 417.16 611.269 417.043 610.757 417C610.245 416.957 609.744 416.936 609.253 416.936H606.053V422.632H607.653Z" fill="#BDFF00"/>
<rect y="185" width="230" height="90" rx="20" fill="black"/>
<path d="M47.3728 219.648C46.0288 219.648 44.8768 219.893 43.9167 220.384C42.9781 220.875 42.1994 221.536 41.5808 222.368C40.9834 223.2 40.5461 224.16 40.2688 225.248C39.9914 226.315 39.8528 227.435 39.8528 228.608C39.8528 229.867 40.0021 231.051 40.3008 232.16C40.5994 233.269 41.0581 234.24 41.6768 235.072C42.2954 235.883 43.0848 236.533 44.0448 237.024C45.0048 237.493 46.1461 237.728 47.4688 237.728C49.0688 237.728 50.4128 237.397 51.5008 236.736C52.5888 236.075 53.2928 235.189 53.6128 234.08H56.6528C56.1621 235.957 55.1274 237.461 53.5487 238.592C51.9701 239.701 49.9221 240.256 47.4048 240.256C45.6554 240.256 44.1301 239.968 42.8288 239.392C41.5274 238.816 40.4394 238.016 39.5648 236.992C38.7114 235.968 38.0714 234.752 37.6448 233.344C37.2181 231.936 37.0048 230.389 37.0048 228.704C37.0048 227.04 37.2181 225.504 37.6448 224.096C38.0714 222.688 38.7221 221.472 39.5968 220.448C40.4714 219.403 41.5594 218.592 42.8608 218.016C44.1621 217.419 45.6981 217.12 47.4688 217.12C48.7061 217.12 49.8154 217.269 50.7968 217.568C51.7994 217.867 52.6634 218.293 53.3888 218.848C54.1354 219.381 54.7434 220.032 55.2128 220.8C55.6821 221.547 56.0234 222.379 56.2368 223.296H53.4208C53.1008 222.187 52.4074 221.301 51.3408 220.64C50.2954 219.979 48.9728 219.648 47.3728 219.648ZM73.092 223.136V225.536H67.3V240H64.58V225.536H58.788V223.136H73.092ZM86.623 237.856C86.2603 238.347 85.8443 238.741 85.375 239.04C84.9057 239.339 84.415 239.573 83.903 239.744C83.4123 239.915 82.911 240.032 82.399 240.096C81.9083 240.16 81.4177 240.192 80.927 240.192C80.1377 240.192 79.391 240.096 78.687 239.904C77.983 239.712 77.343 239.403 76.767 238.976C76.2123 238.549 75.7643 238.016 75.423 237.376C75.103 236.736 74.943 236.011 74.943 235.2C74.943 234.24 75.1137 233.44 75.455 232.8C75.8177 232.139 76.2977 231.605 76.895 231.2C77.4923 230.795 78.175 230.517 78.943 230.368C79.7323 230.197 80.5643 230.112 81.439 230.112H86.399C86.399 228.683 86.0897 227.552 85.471 226.72C84.8523 225.867 83.807 225.419 82.335 225.376C81.439 225.376 80.6497 225.525 79.967 225.824C79.2843 226.123 78.815 226.613 78.559 227.296H75.647C75.7963 226.528 76.095 225.877 76.543 225.344C76.991 224.789 77.5243 224.341 78.143 224C78.7617 223.637 79.4337 223.371 80.159 223.2C80.8843 223.029 81.6097 222.944 82.335 222.944C83.5937 222.944 84.6497 223.157 85.503 223.584C86.3777 223.989 87.0817 224.533 87.615 225.216C88.1483 225.877 88.5217 226.688 88.735 227.648C88.9483 228.608 89.055 229.685 89.055 230.88V240H86.783L86.623 237.856ZM83.423 232.384C82.911 232.384 82.3137 232.395 81.631 232.416C80.9697 232.416 80.3297 232.48 79.711 232.608C79.0923 232.736 78.591 233.003 78.207 233.408C77.8443 233.813 77.663 234.347 77.663 235.008C77.663 235.499 77.759 235.915 77.951 236.256C78.143 236.597 78.399 236.885 78.719 237.12C79.0603 237.355 79.4443 237.525 79.871 237.632C80.2977 237.739 80.735 237.792 81.183 237.792C82.783 237.792 84.0417 237.408 84.959 236.64C85.8977 235.851 86.3777 234.709 86.399 233.216V232.384H83.423ZM95.989 246.08H93.269V223.136H95.861L95.989 225.728C96.565 224.811 97.3437 224.128 98.325 223.68C99.3277 223.211 100.405 222.965 101.557 222.944C102.858 222.944 103.957 223.168 104.853 223.616C105.77 224.043 106.528 224.651 107.125 225.44C107.744 226.208 108.202 227.125 108.501 228.192C108.8 229.237 108.949 230.368 108.949 231.584C108.949 232.821 108.8 233.963 108.501 235.008C108.202 236.053 107.744 236.96 107.125 237.728C106.506 238.496 105.728 239.104 104.789 239.552C103.85 239.979 102.73 240.192 101.429 240.192C100.149 240.192 99.061 239.989 98.165 239.584C97.269 239.179 96.5437 238.645 95.989 237.984V246.08ZM101.205 237.792C102.122 237.792 102.89 237.632 103.509 237.312C104.149 236.971 104.661 236.523 105.045 235.968C105.45 235.392 105.738 234.731 105.909 233.984C106.101 233.237 106.208 232.437 106.229 231.584C106.229 230.731 106.133 229.931 105.941 229.184C105.77 228.416 105.482 227.755 105.077 227.2C104.672 226.645 104.138 226.208 103.477 225.888C102.837 225.547 102.058 225.376 101.141 225.376C100.053 225.376 99.1143 225.675 98.325 226.272C97.5357 226.848 96.9383 227.584 96.533 228.48C96.2983 228.971 96.1383 229.483 96.053 230.016C95.9677 230.528 95.925 231.061 95.925 231.616C95.925 232.256 95.9677 232.853 96.053 233.408C96.1383 233.941 96.2983 234.453 96.533 234.944C96.9383 235.755 97.525 236.437 98.293 236.992C99.0823 237.525 100.053 237.792 101.205 237.792ZM119.881 222.944C121.225 222.944 122.387 223.157 123.369 223.584C124.35 224.011 125.171 224.608 125.833 225.376C126.515 226.144 127.017 227.061 127.337 228.128C127.678 229.173 127.849 230.325 127.849 231.584C127.849 232.843 127.678 234.005 127.337 235.072C127.017 236.117 126.515 237.024 125.833 237.792C125.171 238.539 124.339 239.125 123.337 239.552C122.334 239.979 121.161 240.192 119.817 240.192C118.473 240.192 117.299 239.979 116.297 239.552C115.315 239.125 114.483 238.539 113.801 237.792C113.139 237.024 112.638 236.117 112.297 235.072C111.977 234.005 111.817 232.843 111.817 231.584C111.817 230.325 111.977 229.173 112.297 228.128C112.638 227.061 113.139 226.144 113.801 225.376C114.483 224.608 115.326 224.011 116.329 223.584C117.331 223.157 118.515 222.944 119.881 222.944ZM119.817 237.792C120.734 237.792 121.523 237.632 122.185 237.312C122.867 236.992 123.422 236.555 123.849 236C124.297 235.424 124.617 234.763 124.809 234.016C125.022 233.269 125.129 232.459 125.129 231.584C125.129 230.731 125.022 229.931 124.809 229.184C124.617 228.416 124.297 227.755 123.849 227.2C123.422 226.624 122.867 226.176 122.185 225.856C121.523 225.536 120.734 225.376 119.817 225.376C118.899 225.376 118.11 225.536 117.449 225.856C116.787 226.176 116.233 226.624 115.785 227.2C115.358 227.755 115.038 228.416 114.825 229.184C114.633 229.931 114.536 230.731 114.536 231.584C114.536 232.459 114.633 233.269 114.825 234.016C115.038 234.763 115.358 235.424 115.785 236C116.233 236.555 116.787 236.992 117.449 237.312C118.11 237.632 118.899 237.792 119.817 237.792ZM138.688 240.192C137.344 240.192 136.181 239.979 135.2 239.552C134.218 239.125 133.408 238.528 132.768 237.76C132.128 236.992 131.648 236.085 131.328 235.04C131.008 233.995 130.848 232.853 130.848 231.616C130.848 230.421 131.018 229.301 131.36 228.256C131.701 227.189 132.202 226.272 132.864 225.504C133.525 224.715 134.357 224.096 135.36 223.648C136.362 223.179 137.578 222.944 139.008 222.944C139.861 222.944 140.618 223.04 141.28 223.232C141.941 223.403 142.56 223.691 143.136 224.096C143.733 224.48 144.245 224.992 144.672 225.632C145.098 226.272 145.408 227.051 145.6 227.968H142.816C142.496 227.029 141.984 226.357 141.28 225.952C140.597 225.547 139.786 225.355 138.848 225.376C137.93 225.376 137.12 225.557 136.416 225.92C135.733 226.261 135.178 226.72 134.752 227.296C134.346 227.872 134.048 228.544 133.856 229.312C133.664 230.059 133.568 230.827 133.568 231.616C133.568 232.448 133.664 233.237 133.856 233.984C134.069 234.731 134.378 235.392 134.784 235.968C135.21 236.523 135.754 236.971 136.416 237.312C137.077 237.632 137.866 237.792 138.784 237.792C139.232 237.792 139.669 237.749 140.096 237.664C140.544 237.579 140.949 237.44 141.312 237.248C141.696 237.035 142.026 236.757 142.304 236.416C142.581 236.075 142.784 235.659 142.912 235.168H145.728C145.557 236.043 145.248 236.8 144.8 237.44C144.373 238.059 143.84 238.581 143.2 239.008C142.56 239.413 141.856 239.712 141.088 239.904C140.32 240.096 139.52 240.192 138.688 240.192ZM161.623 223.136V225.536H155.831V240H153.111V225.536H147.319V223.136H161.623ZM175.154 237.856C174.792 238.347 174.376 238.741 173.906 239.04C173.437 239.339 172.946 239.573 172.434 239.744C171.944 239.915 171.442 240.032 170.93 240.096C170.44 240.16 169.949 240.192 169.458 240.192C168.669 240.192 167.922 240.096 167.218 239.904C166.514 239.712 165.874 239.403 165.298 238.976C164.744 238.549 164.296 238.016 163.954 237.376C163.634 236.736 163.474 236.011 163.474 235.2C163.474 234.24 163.645 233.44 163.986 232.8C164.349 232.139 164.829 231.605 165.426 231.2C166.024 230.795 166.706 230.517 167.474 230.368C168.264 230.197 169.096 230.112 169.97 230.112H174.93C174.93 228.683 174.621 227.552 174.002 226.72C173.384 225.867 172.338 225.419 170.866 225.376C169.97 225.376 169.181 225.525 168.498 225.824C167.816 226.123 167.346 226.613 167.09 227.296H164.178C164.328 226.528 164.626 225.877 165.074 225.344C165.522 224.789 166.056 224.341 166.674 224C167.293 223.637 167.965 223.371 168.69 223.2C169.416 223.029 170.141 222.944 170.866 222.944C172.125 222.944 173.181 223.157 174.034 223.584C174.909 223.989 175.613 224.533 176.146 225.216C176.68 225.877 177.053 226.688 177.266 227.648C177.48 228.608 177.586 229.685 177.586 230.88V240H175.314L175.154 237.856ZM171.954 232.384C171.442 232.384 170.845 232.395 170.162 232.416C169.501 232.416 168.861 232.48 168.242 232.608C167.624 232.736 167.122 233.003 166.738 233.408C166.376 233.813 166.194 234.347 166.194 235.008C166.194 235.499 166.29 235.915 166.482 236.256C166.674 236.597 166.93 236.885 167.25 237.12C167.592 237.355 167.976 237.525 168.402 237.632C168.829 237.739 169.266 237.792 169.714 237.792C171.314 237.792 172.573 237.408 173.49 236.64C174.429 235.851 174.909 234.709 174.93 233.216V232.384H171.954ZM194.248 223.136V225.536H188.456V240H185.736V225.536H179.944V223.136H194.248Z" fill="white"/>
<rect x="330" y="185" width="355" height="90" rx="20" fill="black"/>
<path d="M370.881 240H368.097V217.376H370.881V227.808H374.241L381.601 217.376H384.801L376.673 228.608L384.865 240H381.569L374.465 230.336H370.881V240ZM398.616 223.136H401.688L396.92 236.416C396.664 237.099 396.386 237.877 396.088 238.752C395.81 239.605 395.49 240.459 395.128 241.312C394.786 242.187 394.392 243.008 393.944 243.776C393.517 244.544 393.037 245.163 392.504 245.632C391.714 246.336 390.957 246.773 390.232 246.944C389.506 247.136 388.685 247.232 387.768 247.232H387.192V244.64C387.96 244.64 388.61 244.555 389.144 244.384C389.677 244.235 390.136 243.989 390.52 243.648C390.925 243.307 391.266 242.88 391.544 242.368C391.842 241.856 392.141 241.248 392.44 240.544L384.888 223.136H388.088L393.944 237.344L398.616 223.136ZM406.927 246.08H404.207V223.136H406.799L406.927 225.728C407.503 224.811 408.281 224.128 409.263 223.68C410.265 223.211 411.343 222.965 412.495 222.944C413.796 222.944 414.895 223.168 415.791 223.616C416.708 224.043 417.465 224.651 418.062 225.44C418.681 226.208 419.14 227.125 419.439 228.192C419.737 229.237 419.887 230.368 419.887 231.584C419.887 232.821 419.737 233.963 419.439 235.008C419.14 236.053 418.681 236.96 418.062 237.728C417.444 238.496 416.665 239.104 415.727 239.552C414.788 239.979 413.668 240.192 412.367 240.192C411.087 240.192 409.999 239.989 409.103 239.584C408.207 239.179 407.481 238.645 406.927 237.984V246.08ZM412.143 237.792C413.06 237.792 413.828 237.632 414.447 237.312C415.087 236.971 415.599 236.523 415.983 235.968C416.388 235.392 416.676 234.731 416.847 233.984C417.039 233.237 417.145 232.437 417.167 231.584C417.167 230.731 417.071 229.931 416.879 229.184C416.708 228.416 416.42 227.755 416.015 227.2C415.609 226.645 415.076 226.208 414.415 225.888C413.775 225.547 412.996 225.376 412.079 225.376C410.991 225.376 410.052 225.675 409.263 226.272C408.473 226.848 407.876 227.584 407.471 228.48C407.236 228.971 407.076 229.483 406.991 230.016C406.905 230.528 406.863 231.061 406.863 231.616C406.863 232.256 406.905 232.853 406.991 233.408C407.076 233.941 407.236 234.453 407.471 234.944C407.876 235.755 408.463 236.437 409.231 236.992C410.02 237.525 410.991 237.792 412.143 237.792ZM434.498 237.856C434.135 238.347 433.719 238.741 433.25 239.04C432.781 239.339 432.29 239.573 431.778 239.744C431.287 239.915 430.786 240.032 430.274 240.096C429.783 240.16 429.293 240.192 428.802 240.192C428.013 240.192 427.266 240.096 426.562 239.904C425.858 239.712 425.218 239.403 424.642 238.976C424.087 238.549 423.639 238.016 423.298 237.376C422.978 236.736 422.818 236.011 422.818 235.2C422.818 234.24 422.989 233.44 423.33 232.8C423.693 232.139 424.173 231.605 424.77 231.2C425.367 230.795 426.05 230.517 426.818 230.368C427.607 230.197 428.439 230.112 429.314 230.112H434.274C434.274 228.683 433.965 227.552 433.346 226.72C432.727 225.867 431.682 225.419 430.21 225.376C429.314 225.376 428.525 225.525 427.842 225.824C427.159 226.123 426.69 226.613 426.434 227.296H423.522C423.671 226.528 423.97 225.877 424.418 225.344C424.866 224.789 425.399 224.341 426.018 224C426.637 223.637 427.309 223.371 428.034 223.2C428.759 223.029 429.485 222.944 430.21 222.944C431.469 222.944 432.525 223.157 433.378 223.584C434.253 223.989 434.957 224.533 435.49 225.216C436.023 225.877 436.397 226.688 436.61 227.648C436.823 228.608 436.93 229.685 436.93 230.88V240H434.658L434.498 237.856ZM431.298 232.384C430.786 232.384 430.189 232.395 429.506 232.416C428.845 232.416 428.205 232.48 427.586 232.608C426.967 232.736 426.466 233.003 426.082 233.408C425.719 233.813 425.538 234.347 425.538 235.008C425.538 235.499 425.634 235.915 425.826 236.256C426.018 236.597 426.274 236.885 426.594 237.12C426.935 237.355 427.319 237.525 427.746 237.632C428.173 237.739 428.61 237.792 429.058 237.792C430.658 237.792 431.917 237.408 432.834 236.64C433.773 235.851 434.253 234.709 434.274 233.216V232.384H431.298ZM453.592 223.136V225.536H447.8V240H445.08V225.536H439.288V223.136H453.592ZM463.443 222.944C464.787 222.944 465.95 223.157 466.931 223.584C467.912 224.011 468.734 224.608 469.395 225.376C470.078 226.144 470.579 227.061 470.899 228.128C471.24 229.173 471.411 230.325 471.411 231.584C471.411 232.843 471.24 234.005 470.899 235.072C470.579 236.117 470.078 237.024 469.395 237.792C468.734 238.539 467.902 239.125 466.899 239.552C465.896 239.979 464.723 240.192 463.379 240.192C462.035 240.192 460.862 239.979 459.859 239.552C458.878 239.125 458.046 238.539 457.363 237.792C456.702 237.024 456.2 236.117 455.859 235.072C455.539 234.005 455.379 232.843 455.379 231.584C455.379 230.325 455.539 229.173 455.859 228.128C456.2 227.061 456.702 226.144 457.363 225.376C458.046 224.608 458.888 224.011 459.891 223.584C460.894 223.157 462.078 222.944 463.443 222.944ZM463.379 237.792C464.296 237.792 465.086 237.632 465.747 237.312C466.43 236.992 466.984 236.555 467.411 236C467.859 235.424 468.179 234.763 468.371 234.016C468.584 233.269 468.691 232.459 468.691 231.584C468.691 230.731 468.584 229.931 468.371 229.184C468.179 228.416 467.859 227.755 467.411 227.2C466.984 226.624 466.43 226.176 465.747 225.856C465.086 225.536 464.296 225.376 463.379 225.376C462.462 225.376 461.672 225.536 461.011 225.856C460.35 226.176 459.795 226.624 459.347 227.2C458.92 227.755 458.6 228.416 458.387 229.184C458.195 229.931 458.099 230.731 458.099 231.584C458.099 232.459 458.195 233.269 458.387 234.016C458.6 234.763 458.92 235.424 459.347 236C459.795 236.555 460.35 236.992 461.011 237.312C461.672 237.632 462.462 237.792 463.379 237.792ZM477.77 246.08H475.05V223.136H477.642L477.77 225.728C478.346 224.811 479.125 224.128 480.106 223.68C481.109 223.211 482.186 222.965 483.338 222.944C484.64 222.944 485.738 223.168 486.634 223.616C487.552 224.043 488.309 224.651 488.906 225.44C489.525 226.208 489.984 227.125 490.282 228.192C490.581 229.237 490.73 230.368 490.73 231.584C490.73 232.821 490.581 233.963 490.282 235.008C489.984 236.053 489.525 236.96 488.906 237.728C488.288 238.496 487.509 239.104 486.57 239.552C485.632 239.979 484.512 240.192 483.21 240.192C481.93 240.192 480.842 239.989 479.946 239.584C479.05 239.179 478.325 238.645 477.77 237.984V246.08ZM482.986 237.792C483.904 237.792 484.672 237.632 485.29 237.312C485.93 236.971 486.442 236.523 486.826 235.968C487.232 235.392 487.52 234.731 487.69 233.984C487.882 233.237 487.989 232.437 488.01 231.584C488.01 230.731 487.914 229.931 487.722 229.184C487.552 228.416 487.264 227.755 486.858 227.2C486.453 226.645 485.92 226.208 485.258 225.888C484.618 225.547 483.84 225.376 482.922 225.376C481.834 225.376 480.896 225.675 480.106 226.272C479.317 226.848 478.72 227.584 478.314 228.48C478.08 228.971 477.92 229.483 477.834 230.016C477.749 230.528 477.706 231.061 477.706 231.616C477.706 232.256 477.749 232.853 477.834 233.408C477.92 233.941 478.08 234.453 478.314 234.944C478.72 235.755 479.306 236.437 480.074 236.992C480.864 237.525 481.834 237.792 482.986 237.792ZM501.75 240.192C500.406 240.192 499.244 239.979 498.262 239.552C497.281 239.125 496.47 238.528 495.83 237.76C495.19 236.992 494.71 236.085 494.39 235.04C494.07 233.995 493.91 232.853 493.91 231.616C493.91 230.421 494.081 229.301 494.422 228.256C494.764 227.189 495.265 226.272 495.926 225.504C496.588 224.715 497.42 224.096 498.422 223.648C499.425 223.179 500.641 222.944 502.07 222.944C502.924 222.944 503.681 223.04 504.342 223.232C505.004 223.403 505.622 223.691 506.198 224.096C506.796 224.48 507.308 224.992 507.734 225.632C508.161 226.272 508.47 227.051 508.662 227.968H505.878C505.558 227.029 505.046 226.357 504.342 225.952C503.66 225.547 502.849 225.355 501.91 225.376C500.993 225.376 500.182 225.557 499.478 225.92C498.796 226.261 498.241 226.72 497.814 227.296C497.409 227.872 497.11 228.544 496.918 229.312C496.726 230.059 496.63 230.827 496.63 231.616C496.63 232.448 496.726 233.237 496.918 233.984C497.132 234.731 497.441 235.392 497.846 235.968C498.273 236.523 498.817 236.971 499.478 237.312C500.14 237.632 500.929 237.792 501.846 237.792C502.294 237.792 502.732 237.749 503.158 237.664C503.606 237.579 504.012 237.44 504.374 237.248C504.758 237.035 505.089 236.757 505.366 236.416C505.644 236.075 505.846 235.659 505.974 235.168H508.79C508.62 236.043 508.31 236.8 507.862 237.44C507.436 238.059 506.902 238.581 506.262 239.008C505.622 239.413 504.918 239.712 504.15 239.904C503.382 240.096 502.582 240.192 501.75 240.192ZM512.238 240V223.136H514.958V230.4H517.902L522.894 223.136H525.998L520.366 231.168L526.478 240H523.278L518.222 232.768H514.958V240H512.238ZM531.488 240H528.832V223.136H531.552V236.064C531.701 235.765 531.904 235.445 532.16 235.104C532.416 234.741 532.618 234.464 532.768 234.272L540.928 223.136H543.616V240H540.896V227.072C540.725 227.392 540.533 227.701 540.32 228C540.128 228.277 539.946 228.523 539.776 228.736L531.488 240ZM555.542 218.816C556.438 218.816 557.153 218.645 557.686 218.304C558.241 217.963 558.518 217.365 558.518 216.512H561.014C560.971 218.048 560.459 219.168 559.478 219.872C558.518 220.576 557.195 220.928 555.51 220.928C553.825 220.928 552.502 220.576 551.542 219.872C550.603 219.168 550.113 218.048 550.07 216.512H552.566C552.587 217.365 552.865 217.963 553.398 218.304C553.931 218.645 554.646 218.816 555.542 218.816ZM550.55 240H547.894V223.136H550.614V236.064C550.763 235.765 550.966 235.445 551.222 235.104C551.478 234.741 551.681 234.464 551.83 234.272L559.99 223.136H562.678V240H559.958V227.072C559.787 227.392 559.595 227.701 559.382 228C559.19 228.277 559.009 228.523 558.838 228.736L550.55 240ZM575.582 223.136H578.302V237.632H584.638V223.136H587.358V237.632H593.758V223.136H596.478V240H575.582V223.136ZM613.217 223.136V225.536H607.425V240H604.705V225.536H598.913V223.136H613.217ZM626.748 237.856C626.385 238.347 625.969 238.741 625.5 239.04C625.031 239.339 624.54 239.573 624.028 239.744C623.537 239.915 623.036 240.032 622.524 240.096C622.033 240.16 621.543 240.192 621.052 240.192C620.263 240.192 619.516 240.096 618.812 239.904C618.108 239.712 617.468 239.403 616.892 238.976C616.337 238.549 615.889 238.016 615.548 237.376C615.228 236.736 615.068 236.011 615.068 235.2C615.068 234.24 615.239 233.44 615.58 232.8C615.943 232.139 616.423 231.605 617.02 231.2C617.617 230.795 618.3 230.517 619.068 230.368C619.857 230.197 620.689 230.112 621.564 230.112H626.524C626.524 228.683 626.215 227.552 625.596 226.72C624.977 225.867 623.932 225.419 622.46 225.376C621.564 225.376 620.775 225.525 620.092 225.824C619.409 226.123 618.94 226.613 618.684 227.296H615.772C615.921 226.528 616.22 225.877 616.668 225.344C617.116 224.789 617.649 224.341 618.268 224C618.887 223.637 619.559 223.371 620.284 223.2C621.009 223.029 621.735 222.944 622.46 222.944C623.719 222.944 624.775 223.157 625.628 223.584C626.503 223.989 627.207 224.533 627.74 225.216C628.273 225.877 628.647 226.688 628.86 227.648C629.073 228.608 629.18 229.685 629.18 230.88V240H626.908L626.748 237.856ZM623.548 232.384C623.036 232.384 622.439 232.395 621.756 232.416C621.095 232.416 620.455 232.48 619.836 232.608C619.217 232.736 618.716 233.003 618.332 233.408C617.969 233.813 617.788 234.347 617.788 235.008C617.788 235.499 617.884 235.915 618.076 236.256C618.268 236.597 618.524 236.885 618.844 237.12C619.185 237.355 619.569 237.525 619.996 237.632C620.423 237.739 620.86 237.792 621.308 237.792C622.908 237.792 624.167 237.408 625.084 236.64C626.023 235.851 626.503 234.709 626.524 233.216V232.384H623.548ZM635.442 226.944C635.762 226.496 636.135 226.123 636.562 225.824C636.989 225.504 637.447 225.237 637.938 225.024C638.45 224.811 638.962 224.661 639.474 224.576C640.007 224.469 640.519 224.416 641.01 224.416C642.162 224.416 643.175 224.597 644.05 224.96C644.946 225.323 645.693 225.845 646.29 226.528C646.909 227.189 647.378 227.989 647.698 228.928C648.018 229.867 648.178 230.912 648.178 232.064C648.178 233.216 648.007 234.293 647.666 235.296C647.325 236.277 646.823 237.131 646.162 237.856C645.522 238.581 644.722 239.157 643.762 239.584C642.823 239.989 641.735 240.192 640.498 240.192C639.09 240.192 637.906 239.947 636.946 239.456C635.986 238.944 635.207 238.272 634.61 237.44C634.034 236.587 633.607 235.573 633.33 234.4C633.053 233.227 632.903 232.075 632.882 230.944C632.839 230.603 632.818 229.92 632.818 228.896C632.839 227.851 632.893 226.912 632.978 226.08C633.063 225.227 633.202 224.405 633.394 223.616C633.607 222.805 633.895 222.091 634.258 221.472C634.834 220.448 635.559 219.691 636.434 219.2C637.33 218.709 638.354 218.368 639.506 218.176C639.869 218.112 640.679 217.995 641.938 217.824C643.218 217.632 644.093 217.504 644.562 217.44C644.967 217.397 645.405 217.344 645.874 217.28C646.365 217.195 646.845 217.109 647.314 217.024V219.52C646.994 219.627 646.599 219.723 646.13 219.808C645.661 219.872 645.127 219.936 644.53 220C644.103 220.064 643.655 220.128 643.186 220.192C642.738 220.235 642.269 220.288 641.778 220.352C641.309 220.395 640.583 220.491 639.602 220.64C638.877 220.747 638.279 220.949 637.81 221.248C637.362 221.547 636.967 221.941 636.626 222.432C636.221 223.029 635.922 223.755 635.73 224.608C635.559 225.44 635.463 226.219 635.442 226.944ZM640.562 237.792C641.351 237.792 642.045 237.643 642.642 237.344C643.261 237.045 643.773 236.64 644.178 236.128C644.605 235.616 644.925 235.019 645.138 234.336C645.351 233.653 645.458 232.928 645.458 232.16C645.458 231.413 645.341 230.72 645.106 230.08C644.893 229.419 644.583 228.853 644.178 228.384C643.773 227.893 643.282 227.52 642.706 227.264C642.13 226.987 641.426 226.848 640.594 226.848C639.826 226.869 639.143 227.019 638.546 227.296C637.949 227.573 637.437 227.968 637.01 228.48C636.583 228.971 636.263 229.547 636.05 230.208C635.837 230.848 635.719 231.52 635.698 232.224C635.698 232.971 635.794 233.685 635.986 234.368C636.199 235.029 636.509 235.616 636.914 236.128C637.319 236.64 637.821 237.045 638.418 237.344C639.037 237.643 639.751 237.792 640.562 237.792Z" fill="white"/>
<rect x="785" y="185" width="230" height="90" rx="20" fill="black"/>
<path d="M822.784 240V217.376H825.568V235.648L837.696 217.376H840.64V240H837.856V221.888L825.696 240H822.784ZM845.582 240V223.136H848.302V230.528H856.75V223.136H859.47V240H856.75V232.928H848.302V240H845.582ZM871.801 217.792H874.521V222.976C877.273 223.019 879.428 223.776 880.985 225.248C882.564 226.72 883.353 228.875 883.353 231.712C883.353 233.141 883.14 234.379 882.713 235.424C882.286 236.469 881.678 237.344 880.889 238.048C880.121 238.731 879.193 239.253 878.105 239.616C877.017 239.957 875.822 240.149 874.521 240.192V245.76H871.801V240.192C870.5 240.149 869.305 239.957 868.217 239.616C867.15 239.253 866.222 238.731 865.433 238.048C864.665 237.344 864.068 236.469 863.641 235.424C863.214 234.379 863.001 233.141 863.001 231.712C863.001 228.853 863.78 226.699 865.337 225.248C866.894 223.776 869.049 223.019 871.801 222.976V217.792ZM874.521 237.92C876.59 237.899 878.126 237.365 879.129 236.32C880.132 235.253 880.633 233.685 880.633 231.616C880.633 229.547 880.11 227.979 879.065 226.912C878.041 225.845 876.526 225.312 874.521 225.312V237.92ZM871.801 225.312C869.796 225.312 868.281 225.845 867.257 226.912C866.233 227.979 865.721 229.547 865.721 231.616C865.721 233.685 866.222 235.253 867.225 236.32C868.228 237.365 869.753 237.899 871.801 237.92V225.312ZM894.287 222.944C895.631 222.944 896.793 223.157 897.775 223.584C898.756 224.011 899.577 224.608 900.239 225.376C900.921 226.144 901.423 227.061 901.743 228.128C902.084 229.173 902.255 230.325 902.255 231.584C902.255 232.843 902.084 234.005 901.743 235.072C901.423 236.117 900.921 237.024 900.239 237.792C899.577 238.539 898.745 239.125 897.743 239.552C896.74 239.979 895.567 240.192 894.223 240.192C892.879 240.192 891.705 239.979 890.703 239.552C889.721 239.125 888.889 238.539 888.207 237.792C887.545 237.024 887.044 236.117 886.703 235.072C886.383 234.005 886.223 232.843 886.223 231.584C886.223 230.325 886.383 229.173 886.703 228.128C887.044 227.061 887.545 226.144 888.207 225.376C888.889 224.608 889.732 224.011 890.735 223.584C891.737 223.157 892.921 222.944 894.287 222.944ZM894.223 237.792C895.14 237.792 895.929 237.632 896.591 237.312C897.273 236.992 897.828 236.555 898.255 236C898.703 235.424 899.023 234.763 899.215 234.016C899.428 233.269 899.535 232.459 899.535 231.584C899.535 230.731 899.428 229.931 899.215 229.184C899.023 228.416 898.703 227.755 898.255 227.2C897.828 226.624 897.273 226.176 896.591 225.856C895.929 225.536 895.14 225.376 894.223 225.376C893.305 225.376 892.516 225.536 891.855 225.856C891.193 226.176 890.639 226.624 890.191 227.2C889.764 227.755 889.444 228.416 889.231 229.184C889.039 229.931 888.943 230.731 888.943 231.584C888.943 232.459 889.039 233.269 889.231 234.016C889.444 234.763 889.764 235.424 890.191 236C890.639 236.555 891.193 236.992 891.855 237.312C892.516 237.632 893.305 237.792 894.223 237.792ZM905.894 223.136H908.614V237.632H914.95V223.136H917.67V237.632H924.07V223.136H926.79V240H905.894V223.136ZM943.53 223.136V225.536H937.738V240H935.018V225.536H929.226V223.136H943.53ZM957.061 237.856C956.698 238.347 956.282 238.741 955.813 239.04C955.343 239.339 954.853 239.573 954.341 239.744C953.85 239.915 953.349 240.032 952.837 240.096C952.346 240.16 951.855 240.192 951.365 240.192C950.575 240.192 949.829 240.096 949.125 239.904C948.421 239.712 947.781 239.403 947.205 238.976C946.65 238.549 946.202 238.016 945.861 237.376C945.541 236.736 945.381 236.011 945.381 235.2C945.381 234.24 945.551 233.44 945.893 232.8C946.255 232.139 946.735 231.605 947.333 231.2C947.93 230.795 948.613 230.517 949.381 230.368C950.17 230.197 951.002 230.112 951.877 230.112H956.837C956.837 228.683 956.527 227.552 955.909 226.72C955.29 225.867 954.245 225.419 952.773 225.376C951.877 225.376 951.087 225.525 950.405 225.824C949.722 226.123 949.253 226.613 948.997 227.296H946.085C946.234 226.528 946.533 225.877 946.981 225.344C947.429 224.789 947.962 224.341 948.581 224C949.199 223.637 949.871 223.371 950.597 223.2C951.322 223.029 952.047 222.944 952.773 222.944C954.031 222.944 955.087 223.157 955.941 223.584C956.815 223.989 957.519 224.533 958.053 225.216C958.586 225.877 958.959 226.688 959.173 227.648C959.386 228.608 959.493 229.685 959.493 230.88V240H957.221L957.061 237.856ZM953.861 232.384C953.349 232.384 952.751 232.395 952.069 232.416C951.407 232.416 950.767 232.48 950.149 232.608C949.53 232.736 949.029 233.003 948.645 233.408C948.282 233.813 948.101 234.347 948.101 235.008C948.101 235.499 948.197 235.915 948.389 236.256C948.581 236.597 948.837 236.885 949.157 237.12C949.498 237.355 949.882 237.525 950.309 237.632C950.735 237.739 951.173 237.792 951.621 237.792C953.221 237.792 954.479 237.408 955.397 236.64C956.335 235.851 956.815 234.709 956.837 233.216V232.384H953.861ZM965.755 226.944C966.075 226.496 966.448 226.123 966.875 225.824C967.301 225.504 967.76 225.237 968.251 225.024C968.763 224.811 969.275 224.661 969.786 224.576C970.32 224.469 970.832 224.416 971.323 224.416C972.475 224.416 973.488 224.597 974.363 224.96C975.259 225.323 976.005 225.845 976.603 226.528C977.221 227.189 977.691 227.989 978.01 228.928C978.331 229.867 978.491 230.912 978.491 232.064C978.491 233.216 978.32 234.293 977.979 235.296C977.637 236.277 977.136 237.131 976.475 237.856C975.835 238.581 975.035 239.157 974.075 239.584C973.136 239.989 972.048 240.192 970.811 240.192C969.403 240.192 968.219 239.947 967.259 239.456C966.299 238.944 965.52 238.272 964.923 237.44C964.347 236.587 963.92 235.573 963.643 234.4C963.365 233.227 963.216 232.075 963.195 230.944C963.152 230.603 963.131 229.92 963.131 228.896C963.152 227.851 963.205 226.912 963.291 226.08C963.376 225.227 963.515 224.405 963.707 223.616C963.92 222.805 964.208 222.091 964.571 221.472C965.147 220.448 965.872 219.691 966.747 219.2C967.643 218.709 968.667 218.368 969.819 218.176C970.181 218.112 970.992 217.995 972.251 217.824C973.531 217.632 974.405 217.504 974.875 217.44C975.28 217.397 975.717 217.344 976.187 217.28C976.677 217.195 977.157 217.109 977.627 217.024V219.52C977.307 219.627 976.912 219.723 976.443 219.808C975.973 219.872 975.44 219.936 974.843 220C974.416 220.064 973.968 220.128 973.499 220.192C973.051 220.235 972.581 220.288 972.091 220.352C971.621 220.395 970.896 220.491 969.915 220.64C969.189 220.747 968.592 220.949 968.123 221.248C967.675 221.547 967.28 221.941 966.939 222.432C966.533 223.029 966.235 223.755 966.043 224.608C965.872 225.44 965.776 226.219 965.755 226.944ZM970.875 237.792C971.664 237.792 972.357 237.643 972.955 237.344C973.573 237.045 974.085 236.64 974.491 236.128C974.917 235.616 975.237 235.019 975.451 234.336C975.664 233.653 975.771 232.928 975.771 232.16C975.771 231.413 975.653 230.72 975.419 230.08C975.205 229.419 974.896 228.853 974.491 228.384C974.085 227.893 973.595 227.52 973.019 227.264C972.443 226.987 971.739 226.848 970.907 226.848C970.139 226.869 969.456 227.019 968.859 227.296C968.261 227.573 967.749 227.968 967.323 228.48C966.896 228.971 966.576 229.547 966.363 230.208C966.149 230.848 966.032 231.52 966.011 232.224C966.011 232.971 966.107 233.685 966.299 234.368C966.512 235.029 966.821 235.616 967.227 236.128C967.632 236.64 968.133 237.045 968.731 237.344C969.349 237.643 970.064 237.792 970.875 237.792Z" fill="white"/>
<path d="M228.522 144.744C228.38 145.56 228.927 146.336 229.744 146.478L243.045 148.785C243.861 148.927 244.638 148.38 244.779 147.564C244.921 146.748 244.374 145.971 243.558 145.829L231.734 143.778L233.785 131.955C233.927 131.139 233.38 130.362 232.564 130.221C231.748 130.079 230.971 130.626 230.829 131.442L228.522 144.744ZM344.136 62.7737L229.136 143.774L230.864 146.226L345.864 65.2263L344.136 62.7737Z" fill="black"/>
<path d="M668.522 370.744C668.38 371.56 668.927 372.336 669.744 372.478L683.045 374.785C683.861 374.927 684.638 374.38 684.779 373.564C684.921 372.748 684.374 371.971 683.558 371.829L671.734 369.778L673.785 357.955C673.927 357.139 673.38 356.362 672.564 356.221C671.748 356.079 670.971 356.626 670.829 357.442L668.522 370.744ZM784.136 288.774L669.136 369.774L670.864 372.226L785.864 291.226L784.136 288.774Z" fill="black"/>
<path d="M786.478 144.744C786.62 145.56 786.073 146.336 785.256 146.478L771.955 148.785C771.139 148.927 770.362 148.38 770.221 147.564C770.079 146.748 770.626 145.971 771.442 145.829L783.266 143.778L781.215 131.955C781.073 131.139 781.62 130.362 782.436 130.221C783.252 130.079 784.029 130.626 784.171 131.442L786.478 144.744ZM670.864 62.7737L785.864 143.774L784.136 146.226L669.136 65.2263L670.864 62.7737Z" fill="black"/>
<path d="M346.478 370.744C346.62 371.56 346.073 372.336 345.256 372.478L331.955 374.785C331.139 374.927 330.362 374.38 330.221 373.564C330.079 372.748 330.626 371.971 331.442 371.829L343.266 369.778L341.215 357.955C341.073 357.139 341.62 356.362 342.436 356.221C343.252 356.079 344.029 356.626 344.171 357.442L346.478 370.744ZM230.864 288.774L345.864 369.774L344.136 372.226L229.136 291.226L230.864 288.774Z" fill="black"/>
<path d="M506.939 171.061C507.525 171.646 508.475 171.646 509.061 171.061L518.607 161.515C519.192 160.929 519.192 159.979 518.607 159.393C518.021 158.808 517.071 158.808 516.485 159.393L508 167.879L499.515 159.393C498.929 158.808 497.979 158.808 497.393 159.393C496.808 159.979 496.808 160.929 497.393 161.515L506.939 171.061ZM506.5 105V170H509.5V105H506.5Z" fill="black"/>
<path d="M506.939 356.061C507.525 356.646 508.475 356.646 509.061 356.061L518.607 346.515C519.192 345.929 519.192 344.979 518.607 344.393C518.021 343.808 517.071 343.808 516.485 344.393L508 352.879L499.515 344.393C498.929 343.808 497.979 343.808 497.393 344.393C496.808 344.979 496.808 345.929 497.393 346.515L506.939 356.061ZM506.5 290V355H509.5V290H506.5Z" fill="black"/>
</svg>
